<svg version="1.2" baseProfile="tiny-ps" xmlns="http://www.w3.org/2000/svg" viewBox="0 0 128 128" width="128" height="128">
	<title>high-tide-svg</title>
	<style>
		tspan { white-space:pre }
		.shp0 { fill: #beebfa } 
		.shp1 { fill: #9ee2f8 } 
		.shp2 { fill: #0d91bd } 
		.shp3 { fill: #09607d } 
	</style>
	<g id="Layer">
		<path id="Layer" class="shp0" d="M126.25 83.45C115.87 83.45 115.87 89.45 105.5 89.45C95.12 89.45 95.12 83.45 84.75 83.45C74.37 83.45 74.37 89.45 64 89.45C53.62 89.45 53.62 83.45 43.25 83.45C32.87 83.45 32.87 89.45 22.5 89.45C12.12 89.45 12.12 83.45 1.75 83.45L1.75 67.06C12.12 67.06 12.12 73.06 22.5 73.06C32.87 73.06 32.87 67.06 43.25 67.06C53.62 67.06 53.62 73.06 64 73.06C74.37 73.06 74.37 67.06 84.75 67.06C95.12 67.06 95.12 73.06 105.5 73.06C115.88 73.06 115.87 67.06 126.25 67.06L126.25 83.45Z" />
		<path id="Layer" class="shp1" d="M126.25 99.85C115.87 99.85 115.87 105.85 105.5 105.85C95.12 105.85 95.12 99.85 84.75 99.85C74.37 99.85 74.37 105.85 64 105.85C53.62 105.85 53.62 99.85 43.25 99.85C32.87 99.85 32.87 105.85 22.5 105.85C12.12 105.85 12.12 99.85 1.75 99.85L1.75 83.45C12.12 83.45 12.12 89.45 22.5 89.45C32.87 89.45 32.87 83.45 43.25 83.45C53.62 83.45 53.62 89.45 64 89.45C74.37 89.45 74.37 83.45 84.75 83.45C95.12 83.45 95.12 89.45 105.5 89.45C115.88 89.45 115.87 83.45 126.25 83.45L126.25 99.85Z" />
		<path id="Layer" class="shp2" d="M1.75 126.25L1.75 99.85C12.12 99.85 12.12 105.85 22.5 105.85C32.87 105.85 32.87 99.85 43.25 99.85C53.62 99.85 53.62 105.85 64 105.85C74.37 105.85 74.37 99.85 84.74 99.85C95.12 99.85 95.12 105.85 105.5 105.85C115.87 105.85 115.87 99.85 126.25 99.85L126.25 126.25L1.75 126.25Z" />
		<path id="Layer" class="shp3" d="M61.66 34.34L37.06 9.75L12.46 34.34L19.54 41.42L32.06 28.89L32.06 60.38L42.06 60.38L42.06 28.89L54.59 41.42L61.66 34.34Z" />
		<path id="Layer copy 2" class="shp3" d="M64.46 36.8L89.08 61.38L113.66 36.77L106.59 29.7L94.07 42.24L94.05 10.74L84.05 10.75L84.07 42.24L71.53 29.72L64.46 36.8Z" />
	</g>
</svg>